<?xml version="1.0" encoding="utf-8"?>
<!-- Generator: Adobe Illustrator 21.1.0, SVG Export Plug-In . SVG Version: 6.00 Build 0)  -->
<svg version="1.1" id="Capa_1" xmlns="http://www.w3.org/2000/svg" xmlns:xlink="http://www.w3.org/1999/xlink" x="0px" y="0px"
	 viewBox="0 0 512 512" style="enable-background:new 0 0 512 512;" xml:space="preserve">
<style type="text/css">
	.st0{fill:#66757F;stroke:#000000;stroke-width:5;stroke-miterlimit:10;}
	.st1{fill:#55ACEE;stroke:#000000;stroke-width:5;stroke-miterlimit:10;}
	.st2{fill:#CCD6DD;stroke:#000000;stroke-width:5;stroke-miterlimit:10;}
	.st3{fill:#66757F;}
</style>
<g>
	<path class="st0" d="M433.2,339.2c-5.7,5.7-14.9,5.7-20.7,0l-20.7-20.7c-5.7-5.7-5.7-15,0-20.7l41.3-41.3c5.7-5.7,14.9-5.7,20.7,0
		l20.7,20.7c5.7,5.7,5.7,14.9,0,20.7L433.2,339.2z"/>
	<path class="st0" d="M214.1,120.1c-5.7,5.7-14.9,5.7-20.7,0l-20.7-20.7c-5.7-5.7-5.7-15,0-20.7l41.3-41.3c5.7-5.7,14.9-5.7,20.7,0
		l20.7,20.7c5.7,5.7,5.7,14.9,0,20.7L214.1,120.1z"/>
</g>
<g>
	<path class="st1" d="M24.2,312.5c29.2,0,160.7,14.6,160.7,14.6s14.6,131.5,14.6,160.7c0,29.2-29.2,29.2-43.8,14.6
		c-14.6-14.6-58.4-87.6-58.4-87.6s-73-43.8-87.6-58.4S-5,312.5,24.2,312.5"/>
	<path class="st1" d="M53.4,79.3c43.8-0.6,365.2,14,365.2,14s13.5,321.4,14.1,365.2s-40.3,58.5-56.4,0
		c-16.1-58.4-74.5-248.4-74.5-248.4S97.9,145.7,53.3,135.7C-5,122.6,9.6,79.9,53.4,79.3"/>
</g>
<path class="st2" d="M389.4,34.9C418.6,5.7,491.7-8.9,506.3,5.7s0,87.6-29.2,116.9S199.5,385.5,199.5,385.5s-95,65.7-116.9,43.8
	c-21.9-21.9,43.8-116.9,43.8-116.9S360.2,64.2,389.4,34.9"/>
<g>
	<path class="st0" d="M199.5,312.5c0,0,7.3,7.3-58.4,73S68,444,68,444s-7.3-7.3,58.4-73S199.5,312.5,199.5,312.5"/>
	<path class="st3" d="M418.6,49.6c24.2,0,43.8,19.6,43.8,43.8h11.8c1.7-4.6,2.8-9.4,2.8-14.6c0-24.2-19.6-43.8-43.8-43.8
		c-5.2,0-10,1.2-14.6,2.8V49.6z"/>
</g>
</svg>
